<?xml version="1.0" standalone="no"?>
<!DOCTYPE svg PUBLIC "-//W3C//DTD SVG 20010904//EN"
 "http://www.w3.org/TR/2001/REC-SVG-20010904/DTD/svg10.dtd">
<svg version="1.0" xmlns="http://www.w3.org/2000/svg"
 width="87.000000pt" height="87.000000pt" viewBox="0 0 87.000000 87.000000"
 preserveAspectRatio="xMidYMid meet">
<metadata>
Created by potrace 1.11, written by Peter Selinger 2001-2013
</metadata>
<g transform="translate(0.000000,87.000000) scale(0.100000,-0.100000)"
fill="#000000" stroke="none">
<path d="M70 435 l0 -435 365 0 365 0 0 385 0 385 -25 0 c-16 0 -25 -6 -25
-16 0 -12 -5 -10 -20 9 -13 16 -20 40 -20 66 l0 41 -285 0 -285 0 0 -30 c0
-26 -24 -90 -33 -90 -2 0 -1 16 1 35 6 47 -5 85 -23 85 -13 0 -15 -57 -15
-435z m275 362 c108 -108 38 -363 -94 -343 -71 11 -111 77 -111 182 0 155 118
248 205 161z m327 -44 c39 -37 63 -106 62 -178 -1 -150 -124 -224 -208 -125
-36 43 -49 93 -44 174 3 61 8 79 32 110 15 21 38 41 50 46 32 14 77 3 108 -27z
m-502 -407 c0 -39 -14 -61 -33 -53 -17 6 -40 88 -31 111 5 13 10 12 35 -6 21
-16 29 -30 29 -52z m90 -50 c0 -34 -15 -48 -46 -44 -27 3 -29 6 -32 56 l-3 54
40 -23 c28 -15 41 -30 41 -43z m510 49 c0 -17 -32 -65 -40 -60 -6 4 -10 -2
-10 -11 0 -26 -28 -53 -51 -47 -20 5 -26 46 -11 70 12 19 64 36 72 23 5 -7 9
-4 13 9 4 18 27 31 27 16z m-417 -58 c44 -10 47 -13 47 -43 0 -37 -16 -46 -63
-37 -57 11 -67 20 -67 64 0 35 2 40 18 34 9 -5 38 -13 65 -18z m287 -18 c0
-43 -17 -69 -44 -69 -57 0 -60 73 -3 89 47 14 47 14 47 -20z m-98 -24 c-5 -46
-21 -57 -79 -53 -48 3 -48 3 -51 40 l-3 37 58 4 c32 2 63 4 68 5 7 1 9 -12 7
-33z m-172 -95 c8 -4 43 -10 78 -13 34 -4 79 -15 100 -26 l37 -19 -40 -18
c-28 -13 -65 -19 -127 -19 -84 0 -87 1 -144 40 -32 22 -58 44 -58 50 -2 22
112 26 154 5z"/>
<path d="M252 678 c-16 -16 -15 -43 1 -56 20 -17 39 2 35 33 -3 32 -18 41 -36
23z"/>
<path d="M584 626 c-10 -26 0 -51 21 -51 16 0 20 7 20 30 0 33 -30 49 -41 21z"/>
</g>
</svg>
